HIERARCHY
ROOT hip
{
  OFFSET 0 0 0
  CHANNELS 6 Xposition Yposition Zposition Zrotation Yrotation Xrotation
  JOINT abdomen
  {
    OFFSET 0 20.6881 -0.73152
    CHANNELS 3 Zrotation Xrotation Yrotation
    JOINT chest
    {
      OFFSET 0 11.7043 -0.48768
      CHANNELS 3 Zrotation Xrotation Yrotation
      JOINT neck
      {
        OFFSET 0 22.1894 -2.19456
        CHANNELS 3 Zrotation Xrotation Yrotation
        JOINT head
        {
          OFFSET -0.24384 7.07133 1.2192
          CHANNELS 3 Zrotation Xrotation Yrotation
          JOINT leftEye
          {
            OFFSET 4.14528 8.04674 8.04672
            CHANNELS 3 Zrotation Xrotation Yrotation
            End Site
            {
              OFFSET 1 0 0
            }
          }
          JOINT rightEye
          {
            OFFSET -3.6576 8.04674 8.04672
            CHANNELS 3 Zrotation Xrotation Yrotation
            End Site
            {
              OFFSET 1 0 0
            }
          }
        }
      }
      JOINT rCollar
      {
        OFFSET -2.68224 19.2634 -4.8768
        CHANNELS 3 Zrotation Xrotation Yrotation
        JOINT rShldr
        {
          OFFSET -8.77824 -1.95073 1.46304
          CHANNELS 3 Zrotation Xrotation Yrotation
          JOINT rForeArm
          {
            OFFSET -28.1742 -1.7115 0.48768
            CHANNELS 3 Zrotation Xrotation Yrotation
            JOINT rHand
            {
              OFFSET -22.5879 0.773209 7.07136
              CHANNELS 3 Zrotation Xrotation Yrotation
              JOINT rThumb1
              {
                OFFSET -1.2192 -0.487915 3.41376
                CHANNELS 3 Zrotation Xrotation Yrotation
                JOINT rThumb2
                {
                  OFFSET -3.37035 -0.52449 3.41376
                  CHANNELS 3 Zrotation Xrotation Yrotation
                  End Site
                  {
                    OFFSET -1.78271 -1.18214 1.43049
                  }
                }
              }
              JOINT rIndex1
              {
                OFFSET -7.75947 0.938293 5.60832
                CHANNELS 3 Zrotation Xrotation Yrotation
                JOINT rIndex2
                {
                  OFFSET -2.54057 -0.884171 1.56538
                  CHANNELS 3 Zrotation Xrotation Yrotation
                  End Site
                  {
                    OFFSET -1.62519 -0.234802 1.16502
                  }
                }
              }
              JOINT rMid1
              {
                OFFSET -8.24714 1.18213 3.41376
                CHANNELS 3 Zrotation Xrotation Yrotation
                JOINT rMid2
                {
                  OFFSET -3.10165 -0.590103 1.0647
                  CHANNELS 3 Zrotation Xrotation Yrotation
                  End Site
                  {
                    OFFSET -2.48547 -0.328903 0.83742
                  }
                }
              }
              JOINT rRing1
              {
                OFFSET -8.82822 0.546677 1.51678
                CHANNELS 3 Zrotation Xrotation Yrotation
                JOINT rRing2
                {
                  OFFSET -2.60934 -0.819778 -0.0198488
                  CHANNELS 3 Zrotation Xrotation Yrotation
                  End Site
                  {
                    OFFSET -2.33842 -0.294052 0.168128
                  }
                }
              }
              JOINT rPinky1
              {
                OFFSET -8.27202 -0.0477905 -0.4584
                CHANNELS 3 Zrotation Xrotation Yrotation
                JOINT rPinky2
                {
                  OFFSET -1.82734 -0.647385 -0.700984
                  CHANNELS 3 Zrotation Xrotation Yrotation
                  End Site
                  {
                    OFFSET -1.69225 -0.51767 -0.607171
                  }
                }
              }
            }
          }
        }
      }
      JOINT lCollar
      {
        OFFSET 2.68224 19.2634 -4.8768
        CHANNELS 3 Zrotation Xrotation Yrotation
        JOINT lShldr
        {
          OFFSET 8.77824 -1.95073 1.46304
          CHANNELS 3 Zrotation Xrotation Yrotation
          JOINT lForeArm
          {
            OFFSET 28.1742 -1.7115 0.48768
            CHANNELS 3 Zrotation Xrotation Yrotation
            JOINT lHand
            {
              OFFSET 22.5879 0.773209 7.07136
              CHANNELS 3 Zrotation Xrotation Yrotation
              JOINT lThumb1
              {
                OFFSET 1.2192 -0.487915 3.41376
                CHANNELS 3 Zrotation Xrotation Yrotation
                JOINT lThumb2
                {
                  OFFSET 3.37035 -0.52449 3.41376
                  CHANNELS 3 Zrotation Xrotation Yrotation
                  End Site
                  {
                    OFFSET 1.78271 -1.18214 1.43049
                  }
                }
              }
              JOINT lIndex1
              {
                OFFSET 7.75947 0.938293 5.60832
                CHANNELS 3 Zrotation Xrotation Yrotation
                JOINT lIndex2
                {
                  OFFSET 2.54057 -0.884171 1.56538
                  CHANNELS 3 Zrotation Xrotation Yrotation
                  End Site
                  {
                    OFFSET 1.62519 -0.234802 1.16502
                  }
                }
              }
              JOINT lMid1
              {
                OFFSET 8.24714 1.18213 3.41376
                CHANNELS 3 Zrotation Xrotation Yrotation
                JOINT lMid2
                {
                  OFFSET 3.10165 -0.590103 1.0647
                  CHANNELS 3 Zrotation Xrotation Yrotation
                  End Site
                  {
                    OFFSET 2.48547 -0.328903 0.83742
                  }
                }
              }
              JOINT lRing1
              {
                OFFSET 8.82822 0.546677 1.51678
                CHANNELS 3 Zrotation Xrotation Yrotation
                JOINT lRing2
                {
                  OFFSET 2.60934 -0.819778 -0.0198488
                  CHANNELS 3 Zrotation Xrotation Yrotation
                  End Site
                  {
                    OFFSET 2.33842 -0.294052 0.168128
                  }
                }
              }
              JOINT lPinky1
              {
                OFFSET 8.27202 -0.0477905 -0.4584
                CHANNELS 3 Zrotation Xrotation Yrotation
                JOINT lPinky2
                {
                  OFFSET 1.82734 -0.647385 -0.700984
                  CHANNELS 3 Zrotation Xrotation Yrotation
                  End Site
                  {
                    OFFSET 1.69225 -0.51767 -0.607171
                  }
                }
              }
            }
          }
        }
      }
    }
  }
  JOINT rButtock
  {
    OFFSET -8.77824 4.35084 1.2192
    CHANNELS 3 Zrotation Xrotation Yrotation
    JOINT rThigh
    {
      OFFSET 0 -1.70687 -2.19456
      CHANNELS 3 Zrotation Xrotation Yrotation
      JOINT rShin
      {
        OFFSET 0 -36.8199 0.73152
        CHANNELS 3 Zrotation Xrotation Yrotation
        JOINT rFoot
        {
          OFFSET 0.73152 -45.1104 -5.12064
          CHANNELS 3 Zrotation Xrotation Yrotation
          End Site
          {
            OFFSET -1.1221 -3.69964 12.103
          }
        }
      }
    }
  }
  JOINT lButtock
  {
    OFFSET 8.77824 4.35084 1.2192
    CHANNELS 3 Zrotation Xrotation Yrotation
    JOINT lThigh
    {
      OFFSET 0 -1.70687 -2.19456
      CHANNELS 3 Zrotation Xrotation Yrotation
      JOINT lShin
      {
        OFFSET 0 -36.8199 0.73152
        CHANNELS 3 Zrotation Xrotation Yrotation
        JOINT lFoot
        {
          OFFSET -0.73152 -45.1104 -5.12064
          CHANNELS 3 Zrotation Xrotation Yrotation
          End Site
          {
            OFFSET 1.1221 -3.69964 12.103
          }
        }
      }
    }
  }
}
MOTION
Frames:	4
Frame Time:	0.00833333
13.1671 85.6939 25.1638 310.922 -77.9126 -304.779 11.5926 -0.569612 2.37085 0.376123 -1.15058 0.639666 -9.26105 1.96359 -7.35788 5.53137 -13.9454 -11.6751 -0.0 0.0 0.0 -0.0 0.0 0.0 1.95925e-13 2.4526e-12 -1.03014e-13 71.8095 -9.84519 -23.4442 -7.44996 -2.73001 13.0988 -0.555872 20.6992 3.04398 -1.59044e-09 2.20737e-10 -5.51485e-10 -2.75387e-09 3.52396e-10 -9.23724e-10 -1.59044e-09 2.2074e-10 -5.51487e-10 7.73091 5.47488 0.417314 -1.59044e-09 2.20735e-10 -5.51481e-10 2.90554 0.965183 0.102902 -1.59043e-09 2.20742e-10 -5.51491e-10 10.2786 0.731801 0.0259123 -1.59044e-09 2.20745e-10 -5.5149e-10 2.22167 -0.733487 -0.20892 1.95865e-13 2.4526e-12 -1.0329e-13 -74.9737 -10.5734 27.7824 9.94631 -4.1091 -17.7001 0.90081 25.8933 -3.91268 -1.43669e-09 -1.51258e-09 -1.24905e-09 -2.50974e-09 -2.58087e-09 -2.12874e-09 -1.43669e-09 -1.51258e-09 -1.24904e-09 -7.73091 5.47488 -0.417314 -1.43669e-09 -1.51259e-09 -1.24906e-09 -2.90554 0.965183 -0.102902 -1.43669e-09 -1.51258e-09 -1.24905e-09 -10.2786 0.731801 -0.0259123 -1.43668e-09 -1.51258e-09 -1.24906e-09 -2.22167 -0.733487 0.20892 -2.03217e-16 0.0 -3.88251e-19 14.5754 -9.9427 4.31015 -0.0087451 15.82 0.302008 -3.14455 -7.31887 -14.786 2.03217e-16 0.0 3.88251e-19 14.6915 -38.1615 0.449847 0.850251 55.9922 -1.26078 0.618961 -1.51953 1.12703
12.3672 85.6511 25.1421 310.403 -77.9179 -304.203 11.6392 -0.506209 2.51823 0.232557 -1.15139 0.675494 -9.2859 1.97948 -7.37868 5.56123 -13.9882 -11.7067 -0.0 0.0 0.0 -0.0 0.0 0.0 9.61281e-14 1.31868e-12 -6.90979e-14 71.618 -10.1649 -23.3624 -7.43845 -2.72509 13.0781 -0.569307 20.9328 3.08164 -9.00252e-10 4.28533e-10 -1.36958e-09 -1.57429e-09 7.16089e-10 -2.34818e-09 -9.00251e-10 4.28536e-10 -1.36959e-09 7.73091 5.47488 0.417314 -9.00256e-10 4.28529e-10 -1.36958e-09 2.90554 0.965183 0.102902 -9.00246e-10 4.28537e-10 -1.36959e-09 10.2786 0.731801 0.0259123 -9.0026e-10 4.2854e-10 -1.36959e-09 2.22167 -0.733487 -0.20892 9.60785e-14 1.31867e-12 -6.93894e-14 -75.1846 -10.3467 27.6361 10.1484 -4.2325 -18.0793 0.828921 24.9433 -3.74782 -1.87997e-09 -7.37403e-10 -2.66263e-10 -3.25653e-09 -1.23627e-09 -4.23465e-10 -1.87998e-09 -7.374e-10 -2.6626e-10 -7.73091 5.47488 -0.417314 -1.87997e-09 -7.37406e-10 -2.66278e-10 -2.90554 0.965183 -0.102902 -1.87998e-09 -7.37401e-10 -2.66264e-10 -10.2786 0.731801 -0.0259123 -1.87997e-09 -7.37402e-10 -2.66273e-10 -2.22167 -0.733487 0.20892 -2.03217e-16 0.0 -3.88251e-19 14.7203 -9.31009 4.40967 -0.00753638 15.5883 0.319849 -3.26505 -7.65201 -14.8957 2.03217e-16 0.0 3.88251e-19 14.9417 -38.7479 0.728931 0.776951 54.4352 -1.18619 0.683649 -1.93465 1.52052
11.5791 85.6015 25.1243 309.861 -77.952 -303.579 11.6537 -0.464543 2.67165 0.0978958 -1.15521 0.712839 -9.3138 2.00858 -7.39127 5.58539 -14.0435 -11.7235 -0.0 0.0 0.0 -0.0 0.0 0.0 2.88222e-14 5.71707e-13 -3.00662e-14 71.4723 -10.3789 -23.2113 -7.42917 -2.72091 13.0614 -0.5803 21.1205 3.11201 -2.60449e-10 7.07871e-10 -2.10553e-09 -4.80751e-10 1.20374e-09 -3.63e-09 -2.6045e-10 7.07873e-10 -2.10553e-09 7.73091 5.47488 0.417314 -2.60455e-10 7.07865e-10 -2.10552e-09 2.90554 0.965183 0.102902 -2.60445e-10 7.07874e-10 -2.10554e-09 10.2786 0.731801 0.0259123 -2.60459e-10 7.07876e-10 -2.10554e-09 2.22167 -0.733487 -0.20892 2.87776e-14 5.71702e-13 -3.03644e-14 -75.4055 -10.1406 27.4462 10.3292 -4.34378 -18.4202 0.770108 24.1064 -3.60547 -2.06116e-09 -3.23685e-11 6.77309e-10 -3.55186e-09 -1.72545e-11 1.20916e-09 -2.06117e-09 -3.23657e-11 6.77312e-10 -7.73091 5.47488 -0.417314 -2.06116e-09 -3.23704e-11 6.77293e-10 -2.90554 0.965183 -0.102902 -2.06117e-09 -3.23661e-11 6.77308e-10 -10.2786 0.731801 -0.0259123 -2.06116e-09 -3.23673e-11 6.77299e-10 -2.22167 -0.733487 0.20892 -2.03217e-16 0.0 -3.88251e-19 14.8256 -8.7188 4.49876 -0.00684739 15.3746 0.334516 -3.37701 -7.9656 -14.9666 2.03217e-16 0.0 3.88251e-19 15.1709 -39.2632 0.972539 0.703505 52.719 -1.10851 0.746794 -2.27765 1.89882
10.8028 85.5461 25.1089 309.272 -78.0108 -302.885 11.6311 -0.448926 2.83214 -0.0254794 -1.16461 0.751888 -9.34996 2.05274 -7.39499 5.60883 -14.1139 -11.7224 -0.0 0.0 0.0 -0.0 0.0 0.0 3.0224e-15 3.27037e-13 2.73713e-14 71.3749 -10.4748 -22.9922 -7.42371 -2.71806 13.0514 -0.587554 21.2437 3.13196 3.81682e-10 1.09442e-09 -2.76682e-09 6.1755e-10 1.87816e-09 -4.783e-09 3.8168e-10 1.09443e-09 -2.76683e-09 7.73091 5.47488 0.417314 3.81677e-10 1.09442e-09 -2.76682e-09 2.90554 0.965183 0.102902 3.81685e-10 1.09443e-09 -2.76683e-09 10.2786 0.731801 0.0259123 3.81672e-10 1.09443e-09 -2.76683e-09 2.22167 -0.733487 -0.20892 2.97436e-15 3.27033e-13 2.70786e-14 -75.638 -9.96057 27.2107 10.4871 -4.44223 -18.7187 0.723346 23.3989 -3.48708 -1.82321e-09 6.73687e-10 1.67531e-09 -3.1231e-09 1.19628e-09 2.92782e-09 -1.82322e-09 6.73689e-10 1.67532e-09 -7.73091 5.47488 -0.417314 -1.82321e-09 6.73688e-10 1.6753e-09 -2.90554 0.965183 -0.102902 -1.82321e-09 6.73689e-10 1.67531e-09 -10.2786 0.731801 -0.0259123 -1.82321e-09 6.73689e-10 1.67531e-09 -2.22167 -0.733487 0.20892 -2.03217e-16 0.0 -3.88251e-19 14.8821 -8.17857 4.57048 -0.00667175 15.1812 0.34657 -3.4781 -8.25712 -14.9893 2.03217e-16 0.0 3.88251e-19 15.3717 -39.7138 1.18748 0.632554 50.8418 -1.03058 0.806063 -2.56981 2.24986
